<svg width="32" height="32" viewBox="0 0 32 32" fill="none" xmlns="http://www.w3.org/2000/svg">
    <defs>
        <clipPath id="clip0_31_995">
            <rect width="32" height="32" fill="white" />
        </clipPath>
    </defs>
    <g clip-path="url(#clip0_31_995)">
        <path
            d="M26.2087 9H5.79121C5.54541 8.99997 5.30808 9.08979 5.1239 9.25256C4.93972 9.41533 4.8214 9.63981 4.79121 9.88375L3.00996 24.8838C2.99348 25.0245 3.0071 25.1671 3.04993 25.3022C3.09275 25.4373 3.16379 25.5617 3.25835 25.6673C3.3529 25.7728 3.46881 25.8571 3.59839 25.9144C3.72796 25.9718 3.86825 26.001 4.00996 26H27.99C28.1317 26.001 28.2719 25.9718 28.4015 25.9144C28.5311 25.8571 28.647 25.7728 28.7416 25.6673C28.8361 25.5617 28.9072 25.4373 28.95 25.3022C28.9928 25.1671 29.0064 25.0245 28.99 24.8838L27.2087 9.88375C27.1785 9.63981 27.0602 9.41533 26.876 9.25256C26.6918 9.08979 26.4545 8.99997 26.2087 9Z"
            stroke="#2D6BE6" stroke-width="2" stroke-linecap="round" stroke-linejoin="round" />
        <path
            d="M11 13V8C11 6.67392 11.5268 5.40215 12.4645 4.46447C13.4021 3.52678 14.6739 3 16 3C17.3261 3 18.5979 3.52678 19.5355 4.46447C20.4732 5.40215 21 6.67392 21 8V13"
            stroke="#2D6BE6" stroke-width="2" stroke-linecap="round" stroke-linejoin="round" />
    </g>

</svg>