<svg width="25" height="24" viewBox="0 0 25 24" fill="none" xmlns="http://www.w3.org/2000/svg">
<path d="M9.33337 2H15.3334C20.3334 2 22.3334 4 22.3334 9V15C22.3334 20 20.3334 22 15.3334 22H9.33337C4.33337 22 2.33337 20 2.33337 15V9C2.33337 4 4.33337 2 9.33337 2Z" stroke="#A2A7B1" stroke-width="1.5" stroke-linecap="round" stroke-linejoin="round"/>
<path d="M8.90344 15.27L15.4434 8.72998" stroke="#A2A7B1" stroke-width="1.5" stroke-linecap="round" stroke-linejoin="round"/>
<path d="M9.31339 10.3699C9.9927 10.3699 10.5434 9.81923 10.5434 9.13992C10.5434 8.46061 9.9927 7.90991 9.31339 7.90991C8.63407 7.90991 8.08337 8.46061 8.08337 9.13992C8.08337 9.81923 8.63407 10.3699 9.31339 10.3699Z" stroke="#A2A7B1" stroke-width="1.5" stroke-linecap="round" stroke-linejoin="round"/>
<path d="M15.8534 16.0899C16.5327 16.0899 17.0834 15.5392 17.0834 14.8599C17.0834 14.1806 16.5327 13.6299 15.8534 13.6299C15.1741 13.6299 14.6234 14.1806 14.6234 14.8599C14.6234 15.5392 15.1741 16.0899 15.8534 16.0899Z" stroke="#A2A7B1" stroke-width="1.5" stroke-linecap="round" stroke-linejoin="round"/>
</svg>
